Coordinates
version=1
nRows=16
nColumns=36
inDegrees=yes

Units are S.I. units (second, meters, Newtons, ...)
If the header above contains a line with 'inDegrees', this indicates whether rotational values are in degrees (yes) or radians (no).

endheader
time	pelvis_tilt	pelvis_list	pelvis_rotation	pelvis_tx	pelvis_ty	pelvis_tz	hip_flexion_r	hip_adduction_r	hip_rotation_r	knee_angle_r	knee_angle_r_beta	ankle_angle_r	subtalar_angle_r	mtp_angle_r	hip_flexion_l	hip_adduction_l	hip_rotation_l	knee_angle_l	knee_angle_l_beta	ankle_angle_l	subtalar_angle_l	mtp_angle_l	lumbar_extension	lumbar_bending	lumbar_rotation	arm_flex_r	arm_add_r	arm_rot_r	elbow_flex_r	pro_sup_r	arm_flex_l	arm_add_l	arm_rot_l	elbow_flex_l	pro_sup_l
      9.41666670	    -28.85303125	     -4.35908927	     -4.43146110	      0.04289097	      0.86457732	     -0.03897079	     58.84085493	      3.44579881	     -4.07604402	     42.81401731	      0.74724557	     19.40863018	     -2.03112482	     -7.49999987	     65.79835042	    -17.73256463	     -7.11397311	     55.73980453	      0.97284311	     21.51369989	      8.19940848	     -7.49999987	    -15.61368325	      2.12207537	     10.83440340	     21.69878805	    -15.08907249	     23.50490884	     71.13568320	     99.23441047	     28.73937880	     -9.04626784	     31.25670932	     63.89327117	     91.18876965
      9.43333330	    -28.83329201	     -4.35697161	     -4.50695124	      0.04257706	      0.86399980	     -0.03889946	     59.23303691	      3.32882832	     -4.15602149	     43.53407305	      0.75981291	     20.03970908	     -1.73451785	     -7.49999987	     66.08732227	    -17.73835144	     -7.00099353	     56.41645084	      0.98465282	     21.89596435	      8.09380948	     -7.49999987	    -15.38503161	      2.26941317	     10.91579048	     21.46213562	    -15.15090403	     23.78561872	     71.35920785	     99.70681555	     28.62671205	     -9.00683157	     31.23979978	     63.87324424	     91.27866009
      9.45000000	    -29.00797254	     -4.33609248	     -4.60860148	      0.03329836	      0.86318566	     -0.04623790	     60.17772862	      3.03329638	     -4.45814305	     44.40681052	      0.77504505	     20.60826428	     -1.41160186	     -7.49999987	     66.87407715	    -17.68650211	     -6.87093049	     57.25069658	      0.99921315	     22.29429390	      7.85114691	     -7.49999987	    -15.40775117	      2.55922424	     10.90263726	     21.59879639	    -15.25589530	     23.93949029	     71.60532499	     99.51057121	     28.84633423	     -8.90265894	     31.30312310	     63.80450831	     91.24338245
      9.46666670	    -29.14044005	     -4.22975060	     -4.70972245	      0.03378134	      0.86198963	     -0.04617672	     60.93823784	      2.75078342	     -4.57433002	     45.15005680	      0.78801715	     21.14060394	     -1.00018495	     -7.49999987	     67.50654771	    -17.58545383	     -6.80696953	     58.02521885	      1.01273112	     22.76054336	      7.82407826	     -7.49999987	    -15.65553113	      2.67212550	     10.85474553	     21.61632951	    -15.25849893	     23.82961519	     71.75515512	     99.76375235	     28.80322154	     -8.96999235	     30.93521309	     63.67681301	     91.19395004
      9.48333330	    -29.65427698	     -4.17727336	     -4.70746133	      0.03366327	      0.85396624	     -0.04573651	     62.21782496	      2.38841726	     -4.79946326	     46.24230871	      0.80708054	     22.20069942	     -0.30996205	     -7.49999987	     68.74730504	    -17.43657934	     -6.59421185	     59.09679094	      1.03143358	     23.20005766	      7.59512378	     -7.49999987	    -14.81242968	      2.80010341	     10.73380262	     21.07687071	    -15.44494596	     24.11714710	     71.96331657	     99.48091118	     28.68267403	     -8.89773979	     31.23025972	     63.11007920	     91.25949365
      9.50000000	    -29.43855804	     -4.14474296	     -4.77469599	      0.03367689	      0.85373392	     -0.04550709	     62.48996076	      2.25973363	     -4.73398004	     46.99226505	      0.82016975	     22.69860432	     -0.42769633	     -7.49999987	     68.96799134	    -17.46234087	     -6.55615816	     59.84565726	      1.04450376	     23.70376024	      7.39518997	     -7.49999987	    -15.17561426	      2.73634216	     10.67748865	     21.07062464	    -15.36977907	     23.94599923	     72.00648635	     99.61201892	     28.67397779	     -8.92909654	     30.85311474	     63.18676884	     91.10447572
      9.51666670	    -29.67501096	     -4.12208402	     -4.75025914	      0.03399255	      0.85323448	     -0.04588897	     63.04354862	      2.02888356	     -4.81292063	     47.49829735	      0.82900168	     23.25240275	      0.02863359	     -7.49999987	     69.50481777	    -17.31441010	     -6.38816412	     60.33967661	      1.05312603	     24.25328991	      7.33218426	     -7.49999987	    -14.82887102	      2.86876802	     10.67028066	     20.72351461	    -15.81228498	     24.79688211	     71.62389486	     99.98810492	     28.72918093	     -8.84666150	     31.43052899	     62.34538159	     91.51320316
      9.53333330	    -29.56142758	     -4.13687170	     -4.73257076	      0.03411202	      0.85301854	     -0.04584360	     62.92257437	      1.92605336	     -4.81840712	     47.59247203	      0.83064534	     23.55888300	      0.18329642	     -7.49999987	     69.46472900	    -17.25554392	     -6.32428063	     60.51148133	      1.05612458	     24.67844529	      7.29783709	     -7.49999987	    -15.14865847	      2.98125927	     10.59892692	     20.45633318	    -15.96479924	     25.23193809	     70.71604792	    100.13231777	     28.76791450	     -8.80857838	     31.44465758	     61.68906484	     92.77153023
      9.55000000	    -29.46783288	     -4.10923196	     -4.74527331	      0.03410573	      0.85317214	     -0.04586980	     62.71283145	      1.90013372	     -4.69450345	     47.46457577	      0.82841313	     23.62030042	      0.07407660	     -7.49999987	     69.29834095	    -17.16526126	     -6.29127503	     60.49153852	      1.05577652	     24.90342019	      7.06754038	     -7.49999987	    -15.45190854	      3.06011495	     10.56978076	     20.12928942	    -16.12013193	     25.39896235	     70.28798895	     99.13424669	     28.74739218	     -8.84644654	     31.42579100	     61.53968546	     92.17644883
      9.56666670	    -29.25089637	     -4.14263327	     -4.82700620	      0.03313240	      0.84576377	     -0.04488791	     62.93328895	      1.95682611	     -4.62890704	     48.28485872	      0.84272976	     24.15406840	      0.06815264	     -7.49999987	     69.54420149	    -17.31738663	     -6.20686403	     61.29434314	      1.06978810	     25.53018696	      7.15601100	     -7.49999987	    -15.79079471	      3.17774560	     10.66539073	     19.90328791	    -16.18585918	     25.61937352	     69.72782874	     99.35835787	     28.90368456	     -8.76340770	     31.42802199	     61.39192423	     92.32417244
      9.58333330	    -29.29695874	     -4.02529094	     -4.86688856	      0.03292574	      0.84600027	     -0.04507624	     63.36624972	      1.82462086	     -4.60211688	     48.96283123	      0.85456262	     24.76290768	      0.46302311	     -7.49999987	     69.87971597	    -17.30325946	     -6.16374532	     61.73384247	      1.07745881	     25.95972445	      7.55674744	     -7.49999987	    -15.74562487	      3.14669632	     10.59375837	     20.16031558	    -16.02701526	     26.12649443	     67.63839528	     99.08052166	     29.09624295	     -8.78485621	     31.53991465	     60.56663868	     92.16641272
      9.60000000	    -29.20195701	     -4.02122975	     -4.94503078	      0.03239326	      0.84540954	     -0.04480783	     63.32658642	      1.92070921	     -4.51014535	     49.12414333	      0.85737804	     25.07327613	      0.37066964	     -7.49999987	     69.78642765	    -17.35666926	     -6.15446549	     61.80030175	      1.07861874	     26.06583984	      7.52473047	     -7.49999987	    -15.98483567	      3.16797756	     10.80701414	     20.19091037	    -16.05410892	     26.16307607	     66.96989637	     98.43184171	     29.23471621	     -8.77307637	     31.51443616	     60.51784861	     91.76292149
      9.61666670	    -28.92604370	     -4.02934444	     -5.00765228	      0.03221101	      0.84603446	     -0.04472562	     62.96517010	      2.02825346	     -4.46721289	     49.15110347	      0.85784859	     25.24609590	      0.62717077	     -7.49999987	     69.42568341	    -17.45403451	     -6.22838553	     61.83594589	      1.07924085	     26.42432795	      8.14688499	     -7.49999987	    -16.37941817	      3.17134586	     10.83778458	     20.63933253	    -15.78193794	     26.37860150	     65.56477148	     99.39043025	     29.51961496	     -8.74886169	     31.51638162	     60.00727606	     92.22893872
      9.63333330	    -28.87660185	     -4.05055083	     -5.10764640	      0.03101584	      0.83885075	     -0.04382321	     63.28112619	      2.12853255	     -4.44604065	     49.83679746	      0.86981620	     25.52281688	      0.64692909	     -7.49999987	     69.69827878	    -17.60679208	     -6.16867185	     62.36984931	      1.08855922	     26.72483911	      8.15083427	     -7.49999987	    -16.59124762	      3.16046713	     11.03051873	     20.80925603	    -15.77044048	     26.43237176	     65.40480642	     99.52388748	     29.75924528	     -8.73548465	     31.50150897	     60.12285360	     92.31921194
      9.65000000	    -28.94575975	     -3.98601280	     -5.06149089	      0.03057149	      0.83883873	     -0.04401520	     63.80655349	      2.07406255	     -4.34117410	     50.73369618	      0.88547004	     26.15377966	      0.85598844	     -7.49999987	     70.08348657	    -17.57286351	     -6.10474332	     62.87439512	      1.09736521	     27.14613237	      8.36423774	     -7.49999987	    -16.54224912	      3.15821127	     10.97125842	     20.43958298	    -15.55866505	     26.43753850	     65.01178977	    100.32822885	     29.55757886	     -9.00326930	     31.57084318	     60.78305315	     92.56502554
      9.66666670	    -28.87958071	     -3.95966277	     -5.13692396	      0.03012466	      0.83845204	     -0.04370524	     63.92495817	      2.14026760	     -4.27754184	     51.06569492	      0.89126451	     26.45512810	      1.01254379	     -7.49999987	     70.14511191	    -17.68789461	     -6.11976998	     63.12206453	      1.10168786	     27.44182266	      8.45566175	     -7.49999987	    -16.72198686	      3.13178137	     10.99079743	     20.28896614	    -15.51867661	     26.31953030	     65.19638937	     99.72008750	     29.52059363	     -9.21752690	     31.34373667	     61.35737666	     91.91455876
